<svg width="353" height="381" viewBox="0 0 353 381" fill="none" xmlns="http://www.w3.org/2000/svg">
<mask id="mask0_260_264" style="mask-type:alpha" maskUnits="userSpaceOnUse" x="0" y="0" width="353" height="381">
<rect width="353" height="381" fill="url(#paint0_radial_260_264)"/>
</mask>
<g mask="url(#mask0_260_264)">
<g clip-path="url(#clip0_260_264)">
<g opacity="0.5">
<g clip-path="url(#clip1_260_264)">
<line x1="30.3" x2="30.3" y2="768" stroke="white" stroke-opacity="0.4" stroke-width="0.6"/>
<line x1="78.3" x2="78.3" y2="768" stroke="white" stroke-opacity="0.4" stroke-width="0.6"/>
<line x1="126.3" x2="126.3" y2="768" stroke="white" stroke-opacity="0.4" stroke-width="0.6"/>
<line x1="174.3" x2="174.3" y2="768" stroke="white" stroke-opacity="0.4" stroke-width="0.6"/>
<line x1="222.3" x2="222.3" y2="768" stroke="white" stroke-opacity="0.4" stroke-width="0.6"/>
<line x1="270.3" x2="270.3" y2="768" stroke="white" stroke-opacity="0.4" stroke-width="0.6"/>
<line x1="318.3" x2="318.3" y2="768" stroke="white" stroke-opacity="0.4" stroke-width="0.6"/>
</g>
<rect x="-17.5" y="0.5" width="767" height="767" stroke="white"/>
</g>
<g opacity="0.5">
<g clip-path="url(#clip2_260_264)">
<line x1="-18" y1="47.7" x2="335" y2="47.7" stroke="white" stroke-opacity="0.4" stroke-width="0.6"/>
<line x1="-18" y1="95.7" x2="335" y2="95.7" stroke="white" stroke-opacity="0.4" stroke-width="0.6"/>
<line x1="-18" y1="143.7" x2="335" y2="143.7" stroke="white" stroke-opacity="0.4" stroke-width="0.6"/>
<line x1="-18" y1="191.7" x2="335" y2="191.7" stroke="white" stroke-opacity="0.4" stroke-width="0.6"/>
<line x1="-18" y1="239.7" x2="335" y2="239.7" stroke="white" stroke-opacity="0.4" stroke-width="0.6"/>
<line x1="-18" y1="287.7" x2="335" y2="287.7" stroke="white" stroke-opacity="0.4" stroke-width="0.6"/>
<line x1="-18" y1="335.7" x2="335" y2="335.7" stroke="white" stroke-opacity="0.4" stroke-width="0.6"/>
</g>
<rect x="-17.5" y="0.5" width="352" height="379" stroke="white"/>
</g>
</g>
</g>
<mask id="mask1_260_264" style="mask-type:alpha" maskUnits="userSpaceOnUse" x="0" y="0" width="353" height="381">
<rect width="353" height="381" fill="url(#paint1_radial_260_264)"/>
</mask>
<g mask="url(#mask1_260_264)">
<g clip-path="url(#clip3_260_264)">
<g opacity="0.5">
<g clip-path="url(#clip4_260_264)">
<line x1="30.3" x2="30.3" y2="768" stroke="white" stroke-opacity="0.4" stroke-width="0.6"/>
<line x1="78.3" x2="78.3" y2="768" stroke="white" stroke-opacity="0.4" stroke-width="0.6"/>
<line x1="126.3" x2="126.3" y2="768" stroke="white" stroke-opacity="0.4" stroke-width="0.6"/>
<line x1="174.3" x2="174.3" y2="768" stroke="white" stroke-opacity="0.4" stroke-width="0.6"/>
<line x1="222.3" x2="222.3" y2="768" stroke="white" stroke-opacity="0.4" stroke-width="0.6"/>
<line x1="270.3" x2="270.3" y2="768" stroke="white" stroke-opacity="0.4" stroke-width="0.6"/>
<line x1="318.3" x2="318.3" y2="768" stroke="white" stroke-opacity="0.4" stroke-width="0.6"/>
</g>
<rect x="-17.5" y="0.5" width="767" height="767" stroke="white"/>
</g>
<g opacity="0.5">
<g clip-path="url(#clip5_260_264)">
<line x1="-18" y1="47.7" x2="335" y2="47.7" stroke="white" stroke-opacity="0.4" stroke-width="0.6"/>
<line x1="-18" y1="95.7" x2="335" y2="95.7" stroke="white" stroke-opacity="0.4" stroke-width="0.6"/>
<line x1="-18" y1="143.7" x2="335" y2="143.7" stroke="white" stroke-opacity="0.4" stroke-width="0.6"/>
<line x1="-18" y1="191.7" x2="335" y2="191.7" stroke="white" stroke-opacity="0.4" stroke-width="0.6"/>
<line x1="-18" y1="239.7" x2="335" y2="239.7" stroke="white" stroke-opacity="0.4" stroke-width="0.6"/>
<line x1="-18" y1="287.7" x2="335" y2="287.7" stroke="white" stroke-opacity="0.4" stroke-width="0.6"/>
<line x1="-18" y1="335.7" x2="335" y2="335.7" stroke="white" stroke-opacity="0.4" stroke-width="0.6"/>
</g>
<rect x="-17.5" y="0.5" width="352" height="379" stroke="white"/>
</g>
</g>
</g>
<defs>
<radialGradient id="paint0_radial_260_264" cx="0" cy="0" r="1" gradientUnits="userSpaceOnUse" gradientTransform="translate(177 161) rotate(-90) scale(148 137.123)">
<stop/>
<stop offset="1" stop-opacity="0"/>
</radialGradient>
<radialGradient id="paint1_radial_260_264" cx="0" cy="0" r="1" gradientUnits="userSpaceOnUse" gradientTransform="translate(177 161) rotate(-90) scale(148 137.123)">
<stop/>
<stop offset="1" stop-opacity="0"/>
</radialGradient>
<clipPath id="clip0_260_264">
<rect width="353" height="380" fill="white"/>
</clipPath>
<clipPath id="clip1_260_264">
<rect x="-18" width="768" height="768" fill="white"/>
</clipPath>
<clipPath id="clip2_260_264">
<rect x="-18" width="353" height="380" fill="white"/>
</clipPath>
<clipPath id="clip3_260_264">
<rect width="353" height="380" fill="white"/>
</clipPath>
<clipPath id="clip4_260_264">
<rect x="-18" width="768" height="768" fill="white"/>
</clipPath>
<clipPath id="clip5_260_264">
<rect x="-18" width="353" height="380" fill="white"/>
</clipPath>
</defs>
</svg>
