<svg width="78" height="14" viewBox="0 0 78 14" fill="none" xmlns="http://www.w3.org/2000/svg">
<path d="M3.16077 13.5124C2.82264 13.6862 2.43976 13.3824 2.50784 12.9944L3.23385 8.8561L0.151811 5.91904C-0.136223 5.64456 0.0128776 5.14269 0.398743 5.08788L4.68491 4.47899L6.59601 0.693267C6.76817 0.352244 7.23452 0.352244 7.40667 0.693267L9.31778 4.47899L13.6039 5.08788C13.9898 5.14269 14.1389 5.64456 13.8509 5.91904L10.7688 8.8561L11.4948 12.9944C11.5629 13.3824 11.18 13.6862 10.8419 13.5124L7.00134 11.5384L3.16077 13.5124Z" fill="#6B8DFF"/>
<path d="M19.1608 13.5124C18.8226 13.6862 18.4398 13.3824 18.5078 12.9944L19.2339 8.8561L16.1518 5.91904C15.8638 5.64456 16.0129 5.14269 16.3987 5.08788L20.6849 4.47899L22.596 0.693267C22.7682 0.352244 23.2345 0.352244 23.4067 0.693267L25.3178 4.47899L29.6039 5.08788C29.9898 5.14269 30.1389 5.64456 29.8509 5.91904L26.7688 8.8561L27.4948 12.9944C27.5629 13.3824 27.18 13.6862 26.8419 13.5124L23.0013 11.5384L19.1608 13.5124Z" fill="#6B8DFF"/>
<path d="M35.1608 13.5124C34.8226 13.6862 34.4398 13.3824 34.5078 12.9944L35.2339 8.8561L32.1518 5.91904C31.8638 5.64456 32.0129 5.14269 32.3987 5.08788L36.6849 4.47899L38.596 0.693267C38.7682 0.352244 39.2345 0.352244 39.4067 0.693267L41.3178 4.47899L45.6039 5.08788C45.9898 5.14269 46.1389 5.64456 45.8509 5.91904L42.7688 8.8561L43.4948 12.9944C43.5629 13.3824 43.18 13.6862 42.8419 13.5124L39.0013 11.5384L35.1608 13.5124Z" fill="#6B8DFF"/>
<path d="M51.1608 13.5124C50.8226 13.6862 50.4398 13.3824 50.5078 12.9944L51.2339 8.8561L48.1518 5.91904C47.8638 5.64456 48.0129 5.14269 48.3987 5.08788L52.6849 4.47899L54.596 0.693267C54.7682 0.352244 55.2345 0.352244 55.4067 0.693267L57.3178 4.47899L61.6039 5.08788C61.9898 5.14269 62.1389 5.64456 61.8509 5.91904L58.7688 8.8561L59.4948 12.9944C59.5629 13.3824 59.18 13.6862 58.8419 13.5124L55.0013 11.5384L51.1608 13.5124Z" fill="#6B8DFF"/>
<path d="M67.1608 13.5124C66.8226 13.6862 66.4398 13.3824 66.5078 12.9944L67.2339 8.8561L64.1518 5.91904C63.8638 5.64456 64.0129 5.14269 64.3987 5.08788L68.6849 4.47899L70.596 0.693267C70.7682 0.352244 71.2345 0.352244 71.4067 0.693267L73.3178 4.47899L77.6039 5.08788C77.9898 5.14269 78.1389 5.64456 77.8509 5.91904L74.7688 8.8561L75.4948 12.9944C75.5629 13.3824 75.18 13.6862 74.8419 13.5124L71.0013 11.5384L67.1608 13.5124Z" fill="#6B8DFF"/>
</svg>
