<svg width="24" height="24" viewBox="0 0 24 24" fill="none" xmlns="http://www.w3.org/2000/svg">
<path fill-rule="evenodd" clip-rule="evenodd" d="M5.81166 1.34961C4.62803 1.34961 3.49285 1.81969 2.65574 2.65648C1.81862 3.49327 1.34811 4.62827 1.34766 5.8119V17.7159C1.34766 18.8998 1.81797 20.0353 2.65513 20.8724C3.49229 21.7096 4.62773 22.1799 5.81166 22.1799H17.7157C18.8993 22.1794 20.0343 21.7089 20.8711 20.8718C21.7079 20.0347 22.1779 18.8995 22.1779 17.7159V5.8119C22.1775 4.62856 21.7072 3.49383 20.8705 2.65708C20.0337 1.82034 18.899 1.35006 17.7157 1.34961H5.81166ZM18.9997 5.81875C18.9997 6.15975 18.8642 6.48677 18.6231 6.72789C18.382 6.96901 18.0549 7.10447 17.7139 7.10447C17.3729 7.10447 17.0459 6.96901 16.8048 6.72789C16.5637 6.48677 16.4282 6.15975 16.4282 5.81875C16.4282 5.47776 16.5637 5.15073 16.8048 4.90962C17.0459 4.6685 17.3729 4.53304 17.7139 4.53304C18.0549 4.53304 18.382 4.6685 18.6231 4.90962C18.8642 5.15073 18.9997 5.47776 18.9997 5.81875ZM11.7654 8.19818C10.8197 8.19818 9.91273 8.57385 9.24403 9.24255C8.57533 9.91125 8.19966 10.8182 8.19966 11.7639C8.19966 12.7096 8.57533 13.6165 9.24403 14.2852C9.91273 14.9539 10.8197 15.3296 11.7654 15.3296C12.7111 15.3296 13.618 14.9539 14.2867 14.2852C14.9554 13.6165 15.3311 12.7096 15.3311 11.7639C15.3311 10.8182 14.9554 9.91125 14.2867 9.24255C13.618 8.57385 12.7111 8.19818 11.7654 8.19818ZM6.48366 11.7639C6.48366 10.3636 7.03994 9.02056 8.03013 8.03037C9.02032 7.04018 10.3633 6.4839 11.7637 6.4839C13.164 6.4839 14.507 7.04018 15.4972 8.03037C16.4874 9.02056 17.0437 10.3636 17.0437 11.7639C17.0437 13.1642 16.4874 14.5072 15.4972 15.4974C14.507 16.4876 13.164 17.0439 11.7637 17.0439C10.3633 17.0439 9.02032 16.4876 8.03013 15.4974C7.03994 14.5072 6.48366 13.1642 6.48366 11.7639Z" fill="#D4D4D4"/>
</svg>
